<?xml version="1.0" encoding="UTF-8"?>
<svg width="24px" height="24px" viewBox="0 0 24 24" version="1.1" xmlns="http://www.w3.org/2000/svg" xmlns:xlink="http://www.w3.org/1999/xlink">
    <!-- Generator: Sketch 48 (47235) - http://www.bohemiancoding.com/sketch -->
    <title>icon/personal/normal/white</title>
    <desc>Created with Sketch.</desc>
    <defs></defs>
    <g id="Symbols" stroke="none" stroke-width="1" fill="none" fill-rule="evenodd">
        <g id="icon/personal/normal/white" fill="#F7F7F7" fill-rule="nonzero">
            <path d="M12,15 C8.13400675,15 5,11.8659932 5,8 C5,4.13400675 8.13400675,1 12,1 C15.8659932,1 19,4.13400675 19,8 C19,11.8659932 15.8659932,15 12,15 Z M12,13 C14.7614237,13 17,10.7614237 17,8 C17,5.23857625 14.7614237,3 12,3 C9.23857625,3 7,5.23857625 7,8 C7,10.7614237 9.23857625,13 12,13 Z" id="Oval-2"></path>
            <path d="M21,22 C21,22.5522847 20.5522847,23 20,23 C19.4477153,23 19,22.5522847 19,22 C19,18.1340068 15.8659932,15 12,15 C8.13400675,15 5,18.1340068 5,22 C5,22.5522847 4.55228475,23 4,23 C3.44771525,23 3,22.5522847 3,22 C3,17.0294373 7.02943725,13 12,13 C16.9705627,13 21,17.0294373 21,22 Z" id="Oval-2-Copy"></path>
        </g>
    </g>
</svg>