<?xml version="1.0" encoding="UTF-8"?>
<svg width="24px" height="24px" viewBox="0 0 24 24" version="1.1" xmlns="http://www.w3.org/2000/svg" xmlns:xlink="http://www.w3.org/1999/xlink">
    <!-- Generator: Sketch 48 (47235) - http://www.bohemiancoding.com/sketch -->
    <title>icon/ball/black</title>
    <desc>Created with Sketch.</desc>
    <defs></defs>
    <g id="Symbols" stroke="none" stroke-width="1" fill="none" fill-rule="evenodd">
        <g id="icon/ball/black" fill="#FEB904" fill-rule="nonzero">
            <path d="M12,23 C5.92486775,23 1,18.0751322 1,12 C1,5.92486775 5.92486775,1 12,1 C18.0751322,1 23,5.92486775 23,12 C23,18.0751322 18.0751322,23 12,23 Z M12,21 C16.9705627,21 21,16.9705627 21,12 C21,7.02943725 16.9705627,3 12,3 C7.02943725,3 3,7.02943725 3,12 C3,16.9705627 7.02943725,21 12,21 Z" id="Oval-2"></path>
            <path d="M7.46923141,10.527864 L9.19983101,15.854102 L14.800169,15.854102 L16.5307686,10.527864 L12,7.23606798 L7.46923141,10.527864 Z M12.5877853,5.19098301 L18.2941244,9.33688104 C18.6446118,9.59152505 18.7912699,10.0428924 18.6573956,10.454915 L16.477768,17.163119 C16.3438938,17.5751416 15.9599378,17.854102 15.5267115,17.854102 L8.47328849,17.854102 C8.04006222,17.854102 7.65610625,17.5751416 7.52223197,17.163119 L5.34260439,10.454915 C5.20873011,10.0428924 5.35538824,9.59152505 5.70587565,9.33688104 L11.4122147,5.19098301 C11.7627022,4.936339 12.2372978,4.936339 12.5877853,5.19098301 Z" id="Polygon"></path>
            <path d="M13,6 C13,6.55228475 12.5522847,7 12,7 C11.4477153,7 11,6.55228475 11,6 L11,2 C11,1.44771525 11.4477153,1 12,1 C12.5522847,1 13,1.44771525 13,2 L13,6 Z M17.9961389,11.3682431 C17.5166215,11.6422531 16.9057668,11.4756564 16.6317569,10.9961389 C16.3577469,10.5166215 16.5243436,9.90576683 17.0038611,9.63175686 L20.5038611,7.63175686 C20.9833785,7.35774689 21.5942332,7.52434362 21.8682431,8.00386106 C22.1422531,8.48337851 21.9756564,9.09423317 21.4961389,9.36824314 L17.9961389,11.3682431 Z M14.8598156,17.7682213 C14.4355387,17.4146572 14.3782146,16.7840925 14.7317787,16.3598156 C15.0853428,15.9355387 15.7159075,15.8782146 16.1401844,16.2317787 L19.1401844,18.7317787 C19.5644613,19.0853428 19.6217854,19.7159075 19.2682213,20.1401844 C18.9146572,20.5644613 18.2840925,20.6217854 17.8598156,20.2682213 L14.8598156,17.7682213 Z M7.73177872,16.3598156 C8.0853428,15.9355387 8.7159075,15.8782146 9.1401844,16.2317787 C9.5644613,16.5853428 9.62178536,17.2159075 9.26822128,17.6401844 L6.76822128,20.6401844 C6.4146572,21.0644613 5.7840925,21.1217854 5.3598156,20.7682213 C4.9355387,20.4146572 4.87821464,19.7840925 5.23177872,19.3598156 L7.73177872,16.3598156 Z M6.85112344,9.56367082 C7.36824377,9.75759094 7.6302493,10.3340031 7.43632918,10.8511234 C7.24240906,11.3682438 6.66599688,11.6302493 6.14887656,11.4363292 L2.14887656,9.93632918 C1.63175623,9.74240906 1.3697507,9.16599688 1.56367082,8.64887656 C1.75759094,8.13175623 2.33400312,7.8697507 2.85112344,8.06367082 L6.85112344,9.56367082 Z" id="Line"></path>
        </g>
    </g>
</svg>