<?xml version="1.0" encoding="UTF-8"?>
<svg width="24px" height="24px" viewBox="0 0 24 24" version="1.1" xmlns="http://www.w3.org/2000/svg" xmlns:xlink="http://www.w3.org/1999/xlink">
    <!-- Generator: Sketch 48 (47235) - http://www.bohemiancoding.com/sketch -->
    <title>icon/menu/normal/white</title>
    <desc>Created with Sketch.</desc>
    <defs></defs>
    <g id="Symbols" stroke="none" stroke-width="1" fill="none" fill-rule="evenodd">
        <g id="icon/menu/normal/white" fill="#F7F7F7" fill-rule="nonzero">
            <g id="Group" transform="translate(4.000000, 8.000000)">
                <path d="M0,8 C-0.55228475,8 -1,7.55228475 -1,7 C-1,6.44771525 -0.55228475,6 0,6 L8,6 C8.55228475,6 9,6.44771525 9,7 C9,7.55228475 8.55228475,8 8,8 L0,8 Z" id="Line"></path>
                <path d="M0,2 C-0.55228475,2 -1,1.55228475 -1,1 C-1,0.44771525 -0.55228475,-9.49494344e-16 0,-8.8817842e-16 L16,8.8817842e-16 C16.5522847,9.49494344e-16 17,0.44771525 17,1 C17,1.55228475 16.5522847,2 16,2 L0,2 Z" id="Line"></path>
            </g>
        </g>
    </g>
</svg>