<?xml version="1.0" encoding="UTF-8"?>
<svg width="24px" height="24px" viewBox="0 0 24 24" version="1.1" xmlns="http://www.w3.org/2000/svg" xmlns:xlink="http://www.w3.org/1999/xlink">
    <!-- Generator: Sketch 48 (47235) - http://www.bohemiancoding.com/sketch -->
    <title>icon/down/white</title>
    <desc>Created with Sketch.</desc>
    <defs></defs>
    <g id="Symbols" stroke="none" stroke-width="1" fill="none" fill-rule="evenodd">
        <g id="icon/down/white" fill="#F7F7F7" fill-rule="nonzero">
            <g id="Group" transform="translate(12.000000, 10.000000) rotate(-315.000000) translate(-12.000000, -10.000000) translate(7.000000, 5.000000)">
                <path d="M-2.77555756e-15,9.88888889 C-0.55228475,9.88888889 -1,9.44117364 -1,8.88888889 C-1,8.33660414 -0.55228475,7.88888889 1.99840144e-15,7.88888889 L8.88888889,7.88888889 C9.44117364,7.88888889 9.88888889,8.33660414 9.88888889,8.88888889 C9.88888889,9.44117364 9.44117364,9.88888889 8.88888889,9.88888889 L-2.77555756e-15,9.88888889 Z" id="Line"></path>
                <path d="M7.88888889,3.33066907e-15 C7.88888889,-0.55228475 8.33660414,-1 8.88888889,-1 C9.44117364,-1 9.88888889,-0.55228475 9.88888889,1.11022302e-16 L9.88888889,8.88888889 C9.88888889,9.44117364 9.44117364,9.88888889 8.88888889,9.88888889 C8.33660414,9.88888889 7.88888889,9.44117364 7.88888889,8.88888889 L7.88888889,3.33066907e-15 Z" id="Line"></path>
            </g>
        </g>
    </g>
</svg>