<?xml version="1.0" encoding="UTF-8"?>
<svg width="24px" height="24px" viewBox="0 0 24 24" version="1.1" xmlns="http://www.w3.org/2000/svg" xmlns:xlink="http://www.w3.org/1999/xlink">
    <!-- Generator: Sketch 48 (47235) - http://www.bohemiancoding.com/sketch -->
    <title>icon/coin/black</title>
    <desc>Created with Sketch.</desc>
    <defs></defs>
    <g id="Symbols" stroke="none" stroke-width="1" fill="none" fill-rule="evenodd">
        <g id="icon/coin/black" fill="#FEB904">
            <path d="M12,23 C5.92486775,23 1,18.0751322 1,12 C1,5.92486775 5.92486775,1 12,1 C18.0751322,1 23,5.92486775 23,12 C23,18.0751322 18.0751322,23 12,23 Z M12,21 C16.9705627,21 21,16.9705627 21,12 C21,7.02943725 16.9705627,3 12,3 C7.02943725,3 3,7.02943725 3,12 C3,16.9705627 7.02943725,21 12,21 Z" id="Oval-2" fill-rule="nonzero"></path>
            <path d="M12.152,17.136 C9.1,17.136 7,14.994 7,12.096 L7,12.068 C7,9.282 9.17,7 12.138,7 C13.622,7 14.602,7.336 15.484,7.952 C15.694,8.106 15.932,8.4 15.932,8.82 C15.932,9.408 15.456,9.884 14.868,9.884 C14.56,9.884 14.364,9.772 14.21,9.66 C13.622,9.24 12.992,8.988 12.068,8.988 C10.5,8.988 9.254,10.374 9.254,12.04 L9.254,12.068 C9.254,13.86 10.486,15.176 12.222,15.176 C13.006,15.176 13.706,14.98 14.252,14.588 L14.252,13.188 L12.796,13.188 C12.278,13.188 11.858,12.782 11.858,12.264 C11.858,11.746 12.278,11.326 12.796,11.326 L15.26,11.326 C15.862,11.326 16.338,11.802 16.338,12.404 L16.338,14.784 C16.338,15.414 16.1,15.848 15.582,16.156 C14.784,16.646 13.622,17.136 12.152,17.136 Z" id="G"></path>
        </g>
    </g>
</svg>